<svg role="img" viewBox="0 0 24 24" fill="currentColor" xmlns="http://www.w3.org/2000/svg"><title>Bluesky</title><path d="M12.001 21.011c-2.31 1.714-4.238 2.989-5.188 2.989-1.298 0-2.812-1.025-2.812-4.045 0-1.396.115-3.04.301-3.953.64-3.144 3.351-3.692 5.092-3.644-3.21.365-6.837.91-9.401-1.011C-.238 9.382-.019 5.86.014 5.341c.106-1.666 1.492-3.165 3.197-3.328 1.428-.135 6.079 1.403 8.79 3.09 2.71-1.687 7.362-3.225 8.79-3.09 1.705.163 3.091 1.662 3.197 3.328.033.52.251 4.041-3.992 6.007-2.564 1.921-6.191 1.376-9.401 1.011 1.741-.048 4.451.5 5.092 3.644.186.913.301 2.557.301 3.953 0 3.02-1.514 4.045-2.812 4.045-.95 0-2.878-1.275-5.188-2.989Z"/></svg>
