<svg role="img" viewBox="0 0 24 24" fill="currentColor" xmlns="http://www.w3.org/2000/svg"><title>Docker</title><path d="M13.983 11.078h2.119a.186.186 0 00.186-.185V9.006a.186.186 0 00-.186-.186h-2.119a.185.185 0 00-.185.185v1.888c0 .102.083.185.185.185m-2.812 0h2.118a.186.186 0 00.186-.185V9.006a.186.186 0 00-.186-.186h-2.118a.185.185 0 00-.185.185v1.888c0 .102.082.185.185.185m0-2.816h2.118a.186.186 0 00.186-.186V6.19a.186.186 0 00-.186-.185h-2.118a.185.185 0 00-.185.185v1.887c0 .102.082.185.185.185m-2.812 2.816h2.118a.186.186 0 00.186-.185V9.006a.186.186 0 00-.186-.186h-2.118a.185.185 0 00-.185.185v1.888c0 .102.082.185.185.185m0-2.816h2.118a.186.186 0 00.186-.186V6.19a.186.186 0 00-.186-.185h-2.118a.185.185 0 00-.185.185v1.887c0 .102.082.185.185.185m-2.812 2.816h2.118a.186.186 0 00.186-.185V9.006a.186.186 0 00-.186-.186h-2.118a.185.185 0 00-.185.185v1.888c0 .102.082.185.185.185m0-2.816h2.118a.186.186 0 00.186-.186V6.19a.186.186 0 00-.186-.185h-2.118a.185.185 0 00-.185.185v1.887c0 .102.082.185.185.185m0-2.816h2.118a.186.186 0 00.186-.185V3.374a.186.186 0 00-.186-.185h-2.118a.185.185 0 00-.185.185v1.887c0 .102.082.185.185.185m-2.812 5.632h2.118a.186.186 0 00.186-.185V9.006a.186.186 0 00-.186-.186h-2.118a.185.185 0 00-.185.185v1.888c0 .102.082.185.185.185m-2.812 0h2.118a.186.186 0 00.186-.185V9.006a.186.186 0 00-.186-.186h-2.118a.185.185 0 00-.185.185v1.888c0 .102.082.185.185.185M20.581 8.868c-.015-.05-.06-.089-.111-.097a11.168 11.168 0 00-1.815-.078c-.28.006-.559.022-.835.05.023-.058.043-.117.06-.178.026-.089.049-.177.069-.267a1.002 1.002 0 00-.518-1.096c-.661-.314-1.396-.441-2.144-.378-.475.04-.945.163-1.385.364a.998.998 0 00-.517.82c-.089 1.127.165 2.253.729 3.197.632 1.056 1.636 1.838 2.804 2.196.883.27 1.826.273 2.71.008a3.785 3.785 0 002.508-2.607c.046-.145.09-.292.13-.44a.187.187 0 00-.02-.17zM2.812 11.078c-.185 0-.37.009-.556.027-.369.034-.727.135-1.059.297-.478.232-.897.587-1.196 1.002-.127.176-.109.414.041.564 1.157 1.162 2.65 1.776 4.195 1.733 1.1-.03 2.162-.317 3.136-.84 1.178-.636 2.15-1.63 2.766-2.829a.186.186 0 00-.168-.276z"/></svg>
